<?xml version='1.0' encoding='utf-8'?>
<svg xmlns="http://www.w3.org/2000/svg" width="127.96mm" height="127.15mm" version="1.1" viewBox="0 0 127.96 127.15"> <g transform="translate(-18.663 -31.369)"> <path d="m83.05 31.869a63.076 63.076 0 0 1 63.076 63.076 63.076 63.076 0 0 1-63.076 63.076l-1e-6 -63.076z" fill="#2994b2" fill-rule="nonzero" stroke="#2994b2" stroke-miterlimit="2" style="paint-order:normal"/> <path transform="scale(-1,1)" d="m-82.239 31.869a63.076 63.076 0 0 1 63.076 63.076 63.076 63.076 0 0 1-63.076 63.076l-2e-6 -63.076z" fill="#22a7cc" fill-rule="nonzero" stroke="#22a7cc" stroke-miterlimit="2" style="paint-order:normal"/> <g transform="matrix(-.23519 0 0 .23519 173.23 -27.908)" fill="#fff"> <path d="m258.5 722.4c0-7.9748 2.9283-13.942 8.9109-18.157 4.1866-2.9501 4.5141-3.0083 19.697-3.5l15.439-0.5 10.227-21.806c13.915-29.671 15.616-31.22 34.227-31.164 10.805 0.0324 15.486 1.5806 20.263 6.7014l22.898 46.269 53.419 0.5c58.543 0.54796 56.057 0.28134 62.116 6.6607 3.83 4.0322 5.803 9.4065 5.803 15.807v5.5321h-253zm126.21-53.195-3.2239-6.5377 6.2592-2.8506c3.4426-1.5678 10.242-4.7008 15.109-6.9623s9.8971-4.1118 11.177-4.1118c4.7781 0 8.7487 9.8664 5.1669 12.839-1.474 1.2233-29.352 14.161-30.514 14.161-0.41297 0-2.2016-2.942-3.9747-6.5377zm24.237 5.1194c-2.3671-1.7308-2.5859-1.5246 6.3786-6.013 5.9969-3.0026 7.5937-4.3178 8.8274-7.2703 1.3582-3.2508 1.3435-4.0303-0.14988-7.9408-3.3643-8.8093-8.9628-10.309-19.999-5.3576-3.6775 1.65-6.8695 3-7.0932 3-1.3941 0-0.0241-5.155 1.8432-6.9353 3.1005-2.9562 52.613-25.998 55.944-26.035 1.4818-0.0165 3.793 0.98249 5.136 2.22 2.5342 2.3352 11.67 21.136 11.67 24.016 0 3.1756-2.311 6.6533-5.3886 8.1091-53.552 25.331-53.123 25.165-57.169 22.206zm-101.24-33.411c-11.631-17.557-17.18-32.064-19.325-50.521-2.6094-22.448 3.8411-46.63 18.376-68.889 8.1326-12.455 15.653-21.084 31.163-35.761 14.862-14.063 17.637-32.159 7.399-48.247-6.7543-10.613-22.406-18.088-34.186-16.326l-6.2548 0.35234-29.691-65.842 45.98-21.584c0.84868-0.39839 75.388 174.93 75.084 175.23-0.21555 0.21555-8.4599 4.205-18.321 8.8654l-17.929 8.4735-3.473-6.9703c-1.9101-3.8337-3.9351-6.8234-4.5-6.6438-1.8475 0.58741-12.414 15.999-16.97 24.753-7.1545 13.745-9.8332 24.132-9.9125 38.438-0.0792 14.293 1.4499 21.001 7.7503 34 6.3653 13.133 9.2067 15.52 18.42 15.479 6.8569-0.0309 13.204-2.6271 60.811-24.872 48.319-22.578 46.651-22.119 50.398-13.864 2.425 5.3425 2.4775 8.348 0.18005 10.315-1.7024 1.4577-14.033 7.3193-61.204 29.095-11.275 5.205-21.622 10.569-22.993 11.921-1.9766 1.9485-2.4944 3.466-2.5 7.3268l-7e-3 4.8693-3.8776-3.4977c-7.2168-6.5097-11.461-7.7723-26.122-7.7723-12.157 0-13.324 0.17262-18 2.6607-2.75 1.4634-6.5508 4.2759-8.4462 6.25s-3.7231 3.5893-4.0616 3.5893c-0.33851 0-3.8435-4.873-7.7889-10.829zm81.538-62.421c-0.90237-0.6875-4.179-6.65-7.2814-13.25-8.3991-17.868-8.2546-15.83-1.334-18.816l5.9768-2.5788 6.0288 12.697c3.3159 6.9836 6.2683 14.109 6.5611 15.835 0.93832 5.5311-5.5132 9.4939-9.9513 6.1126zm13.434-22.447c-1.1742-0.46029-8.6002-15.271-7.9385-15.834 0.91811-0.77997 9.0014-4.5496 9.1972-4.2891 1.2608 1.6778 6.5659 14.452 6.5659 15.81 0 2.8672-4.7848 5.5046-7.8246 4.313zm-45.541-8.3754c-2.0065-1.5783-2.6349-2.9636-2.6349-5.8089 0-2.055 0.5625-4.4857 1.25-5.4016 1.8895-2.5173 58.711-28.685 62.326-28.702 6.6-0.032 10.124 9.2484 5.1743 13.627-3.2063 2.8362-58.166 28.358-61.067 28.358-1.3272 0-3.5988-0.93266-5.048-2.0726zm-55.322-62.892c-11.286-5.7078-16.757-14.516-16.792-27.036-0.0257-9.3282 3.3286-16.937 10.091-22.889 5.6204-4.9472 11.829-7.1107 20.407-7.1107 5.4539 0 7.7908 0.56401 12.885 3.1098 6.8334 3.4147 12.977 10.116 15.241 16.626 2.0701 5.9508 1.5861 16.958-0.9804 22.295-5.5552 11.553-13.922 17.123-26.652 17.743-7.3918 0.36038-8.4916 0.14827-14.2-2.7386zm-32.113-137.56c-5.3901-11.094-2.1942-15.342 18.801-24.989 16.032-7.3665 19.793-7.871 24.719-3.3163 2.2468 2.0774 6.7884 10.658 6.0381 11.408-0.16134 0.16134-4.7852 2.3983-10.275 4.971-25.624 12.008-35.451 16.453-36.376 16.453-0.38914 0-1.6972-2.037-2.9068-4.5268z" fill="#fff"/> </g> </g> </svg>
